<svg width="240" height="258" viewBox="0 0 240 258" version="1.1" xmlns="http://www.w3.org/2000/svg" xmlns:xlink="http://www.w3.org/1999/xlink">
<title>tower</title>
<desc>Created using Figma</desc>
<g id="Canvas" transform="translate(-1302 399)">
<g id="tower">
<g id="Oval">
<use xlink:href="#path0_stroke" transform="translate(1346.47 -357.399)" fill="#51C7E3"/>
</g>
<g id="Oval">
<use xlink:href="#path1_stroke" transform="matrix(0.707107 -0.707107 0.707107 0.707107 1365.41 -281.907)" fill="#08295E"/>
</g>
<g id="Oval">
<use xlink:href="#path2_stroke" transform="matrix(0.707107 -0.707107 0.707107 0.707107 1262 -279.678)" fill="#E1B729"/>
</g>
<g id="Rectangle">
<use xlink:href="#path3_fill" transform="matrix(0.984808 0.173648 -0.173648 0.984808 1410.71 -282.681)" fill="#08295E"/>
</g>
<g id="Rectangle">
<use xlink:href="#path4_fill" transform="matrix(0.984808 -0.173648 0.173648 0.984808 1414.57 -279.639)" fill="#08295E"/>
</g>
<g id="Rectangle 2">
<use xlink:href="#path5_fill" transform="translate(1395.44 -239.116)" fill="#08295E"/>
</g>
<g id="Rectangle 2">
<use xlink:href="#path6_fill" transform="translate(1384.14 -205.213)" fill="#08295E"/>
</g>
<g id="Rectangle 2">
<use xlink:href="#path7_fill" transform="translate(1372.84 -171.31)" fill="#08295E"/>
</g>
<g id="Oval">
<use xlink:href="#path8_fill" transform="translate(1405.23 -298.634)" fill="#08295E"/>
</g>
</g>
</g>
<defs>
<path id="path0_stroke" d="M 112.02 145.973C 129.457 138.154 155.68 118.009 155.68 75.34L 145.68 75.34C 145.68 112.868 123.013 130.084 107.928 136.849L 112.02 145.973ZM 155.68 75.34C 155.68 30.9695 119.711 -5 75.34 -5L 75.34 5C 114.188 5 145.68 36.4923 145.68 75.34L 155.68 75.34ZM 75.34 -5C 30.9695 -5 -5 30.9695 -5 75.34L 5 75.34C 5 36.4923 36.4923 5 75.34 5L 75.34 -5ZM -5 75.34C -4.80986 97.5103 6.20293 115.662 16.6923 127.327C 22.0193 133.22 27.4595 137.879 31.3861 140.902C 33.3873 142.44 35.1117 143.65 36.2686 144.428C 36.865 144.829 37.3605 145.149 37.6779 145.35C 37.8453 145.456 37.9867 145.544 38.0727 145.597C 38.12 145.626 38.1622 145.652 38.1861 145.667C 38.2002 145.675 38.214 145.684 38.221 145.688C 38.2256 145.691 38.2306 145.694 38.2329 145.695C 38.2346 145.696 38.2366 145.697 38.2375 145.698C 38.2394 145.699 38.2411 145.7 40.8116 141.411C 43.3822 137.123 43.3836 137.123 43.3849 137.124C 43.3851 137.124 43.3862 137.125 43.3866 137.125C 43.3868 137.125 43.3877 137.126 43.3874 137.126C 43.3846 137.124 43.3835 137.123 43.378 137.12C 43.3627 137.111 43.3464 137.101 43.3164 137.082C 43.248 137.04 43.1602 136.986 43.0287 136.902C 42.7483 136.725 42.367 136.479 41.8474 136.129C 40.7724 135.407 39.3085 134.381 37.4836 132.976C 33.758 130.112 28.9953 126.055 24.1194 120.631C 14.2029 109.662 4.80986 94.7789 5 75.34L -5 75.34Z"/>
<path id="path1_stroke" d="M 34.9428 84.0231C 46.6223 86.9129 59.2852 81.7563 68.6412 73.6275C 78.0674 65.4377 85.2965 53.2659 85.2965 40.3069L 75.2965 40.3069C 75.2965 49.6088 69.9717 59.2244 62.0826 66.0787C 54.1234 72.9939 44.7099 76.1382 37.3447 74.3158L 34.9428 84.0231ZM 85.2965 40.3069C 85.2965 15.2846 65.012 -5 39.9896 -5L 39.9896 5C 59.4891 5 75.2965 20.8074 75.2965 40.3069L 85.2965 40.3069ZM 39.9896 -5C 27.2275 -5 15.2717 1.27298 6.97549 10.2824C -1.31393 19.2845 -6.43291 31.5619 -4.64612 44.0379L 5.25288 42.6202C 3.9862 33.7758 7.5799 24.3886 14.3317 17.0563C 21.0768 9.73133 30.4909 5 39.9896 5L 39.9896 -5Z"/>
<path id="path2_stroke" d="M 143.775 223.348L 142.378 218.547L 143.775 223.348ZM 190.154 198.235L 186.715 194.606L 190.154 198.235ZM 28.2878 36.3693L 32.0676 39.6424L 28.2878 36.3693ZM 1.21042 92.5337L 6.14906 93.3145L 1.21042 92.5337ZM 74.9116 224.52C 90.1423 231.613 118.88 235.798 145.172 228.149L 142.378 218.547C 118.445 225.51 92.1989 221.54 79.1334 215.455L 74.9116 224.52ZM 145.172 228.149C 165.809 222.144 183.803 211.14 193.593 201.865L 186.715 194.606C 178.171 202.701 161.61 212.951 142.378 218.547L 145.172 228.149ZM 193.593 201.865C 215.086 181.501 233.144 148.251 233.144 114.55L 223.144 114.55C 223.144 144.959 206.65 175.718 186.715 194.606L 193.593 201.865ZM 233.144 114.55C 233.144 48.5245 179.62 -5 113.594 -5L 113.594 5C 174.097 5 223.144 54.0474 223.144 114.55L 233.144 114.55ZM 113.594 -5C 83.1473 -5 49.0162 4.79431 24.508 33.0962L 32.0676 39.6424C 54.1578 14.1327 85.1501 5 113.594 5L 113.594 -5ZM 24.508 33.0962C 10.764 49.0231 -0.357422 70.8324 -3.72823 91.7528L 6.14906 93.3145C 9.1514 73.9279 19.0558 54.6129 32.0676 39.6424L 24.508 33.0962ZM -3.72823 91.7528C -6.97691 112.752 -3.35469 132.983 2.58295 151.821L 12.1189 148.81C 6.35155 130.577 3.02241 112.636 6.14906 93.3145L -3.72823 91.7528Z"/>
<path id="path3_fill" fill-rule="evenodd" d="M 0 0L 18.835 0L 18.2959 139.92L 0 143.146L 0 0Z"/>
<path id="path4_fill" fill-rule="evenodd" d="M 0 0L 18.835 0L 18.835 143.146L 0.291147 139.876L 0 0Z"/>
<path id="path5_fill" fill-rule="evenodd" d="M 0 0L 52.738 0L 52.738 18.835L 0 18.835L 0 0Z"/>
<path id="path6_fill" fill-rule="evenodd" d="M 0 0L 75.34 0L 75.34 18.835L 0 18.835L 0 0Z"/>
<path id="path7_fill" fill-rule="evenodd" d="M 0 0L 97.942 0L 97.942 18.835L 0 18.835L 0 0Z"/>
<path id="path8_fill" fill-rule="evenodd" d="M 16.9515 33.903C 26.3136 33.903 33.903 26.3136 33.903 16.9515C 33.903 7.58945 26.3136 0 16.9515 0C 7.58945 0 0 7.58945 0 16.9515C 0 26.3136 7.58945 33.903 16.9515 33.903Z"/>
</defs>
</svg>
